<?xml version="1.0" encoding="UTF-8"?>
<svg id="katman_1" xmlns="http://www.w3.org/2000/svg" version="1.1" viewBox="0 0 120 32">
  <!-- Generator: Adobe Illustrator 30.4.0, SVG Export Plug-In . SVG Version: 2.1.4 Build 226)  -->
  <defs>
    <style>
      .st0 {
        fill: #d4a84a;
      }

      .st1 {
        fill: #1a4b8a;
      }
    </style>
  </defs>
  <g>
    <path class="st1" d="M119.07,22.41l-3.46.05-3.16-4.3c-.42.52-1.05.92-1.25,1.48l-.07,2.8h-3s0-11.44,0-11.44l3-.02.06,4.82,4.25-4.8,3.37.02-4.36,4.97,4.62,6.42Z"/>
    <path class="st1" d="M98.9,17.02c.13,1.97,1.68,3.2,3.57,2.99.93-.11,1.64-.66,2.3-1.36l1.91,1.85c-1.23,1.66-3.16,2.3-5.2,2.18-3.31-.2-5.76-2.76-5.68-6.09.07-2.76,1.88-5.08,4.62-5.66,1.09-.23,2.2-.22,3.28.05,1.18.28,2.15.9,2.93,1.9l-1.91,1.85c-1.07-1.22-2.72-1.72-4.17-.98-1.2.61-1.75,1.9-1.66,3.27Z"/>
    <polygon class="st1" points="86.33 22.42 83.3 22.46 83.29 13.54 79.81 13.52 79.8 10.99 89.78 10.98 89.79 13.52 86.34 13.54 86.33 22.42"/>
    <path class="st0" d="M77.64,22.45l-.04-5.12c0-.8-.3-1.61-.98-2.07-1.06-.71-2.62-.58-3.52.35-.56.57-.78,1.44-.78,2.21l-.02,4.6c-.41.07-.75.08-1.16,0v-11.99c.42-.06.75-.05,1.16,0l.02,4.76c.81-1.04,1.89-1.42,3.1-1.42,1.86,0,3.22,1.31,3.32,3.2l.05,5.46c-.36.08-.69.06-1.14.03Z"/>
    <path class="st0" d="M62.22,13.89v8.53c-.41.09-.74.06-1.09,0,0-.5.08-.86-.07-1.4-.65,1.11-1.76,1.52-2.99,1.52-1.93,0-3.4-1.33-3.41-3.29l-.02-5.37h1.15s.04,5.27.04,5.27c.01,1.37,1.01,2.29,2.35,2.33,1.58.04,2.84-1.04,2.85-2.65l.04-4.95c.34-.04.7-.06,1.15,0Z"/>
    <path class="st1" d="M91.05,22.45l-.02-7.38c1.23-.07,2.22-.69,3.06-1.72l.04,9.09h-3.09Z"/>
    <path class="st0" d="M44.8,11.07l-4.31,7.35v4c-.42.07-.79.07-1.21,0l-.02-4.09-4.31-7.28c.5-.09.85-.05,1.3-.02l3.68,6.22,3.63-6.2c.4-.06.75-.06,1.24.02Z"/>
    <path class="st0" d="M69.05,21.14c.25.26.33.51.43.82-.54.49-1.22.61-1.96.59-1.22-.04-2.19-.93-2.2-2.19l-.03-5.51h-1.46c-.11-.29-.07-.58-.06-.97l1.53-.04.02-1.95h1.12s0,1.95,0,1.95l2.52.02v.97s-2.52.02-2.52.02v5.15c0,.5.18,1.05.61,1.31.6.36,1.34.26,1.99-.17Z"/>
    <path class="st0" d="M91.07,14.08l-.03-3.52h1.41s.05,1.08.05,1.08l1.79-1.97c.44-.48,1.24-.38,1.84-.3l-1.07,1.19-1.99,2.48c-.48.6-1.11.98-2.01,1.03Z"/>
    <path class="st0" d="M48.5,13.81c-2.4,0-4.35,1.95-4.35,4.35s1.95,4.35,4.35,4.35,4.35-1.95,4.35-4.35-1.95-4.35-4.35-4.35ZM51.29,19.62c-.41,1.03-1.35,1.7-2.28,1.84-1.19.17-2.26-.23-2.96-1.22-.93-1.32-.86-3.26.26-4.49,1.2-1.31,3.37-1.25,4.49.12.87,1.06.98,2.53.49,3.76Z"/>
  </g>
  <g>
    <path class="st1" d="M1.17,8.69c.51-1.75,1.57-3.35,3.14-4.26.83-.48,1.75-.81,2.73-.81h20.28c-.33,1.82-.83,3.58-2.11,4.94-1.12,1.24-2.66,1.95-4.33,1.98l-1.76.03c-1.02.02-2.23.91-2.7,1.86l4.22,5.31,3.06-3.94,6.48-8.42c.83-.98,1.92-1.65,3.21-1.75l2.54-.03h3.96s-2.26,2.94-2.26,2.94l-4.38,5.64-2.07,2.67-7.12,9.2-3.37,4.36-3.44-4.09-1.36-1.58c-.4,3.04-2.61,5.38-5.66,5.67h-1.14v-4.32s.04-10.21.04-10.21c0-1.14.34-2.2.72-3.31H.63s.55-1.88.55-1.88ZM10.6,9.07c.95-1.75,2.33-3.09,4.04-4.14h-7.55c-.85.06-1.59.36-2.29.82-1.13.8-1.91,1.97-2.25,3.31h8.06ZM14.57,14.06c0-1.12.42-2.14,1.04-3,.89-1.22,2.27-1.98,3.78-1.98h1.51c2.41-.12,4.08-1.82,4.66-4.15l-6.07.02c-2.63.06-5.04,1.32-6.69,3.34-1.29,1.59-2.21,3.59-2.22,5.67l-.08,12.95c.8-.1,1.47-.42,2.08-.88.75-.6,1.29-1.37,1.62-2.27.28-.78.36-1.55.36-2.39l.02-7.3ZM15.93,20.58l4.75,5.6,3.44-4.47,4.22-5.45,8.75-11.32h-3.34c-.93,0-1.75.51-2.38,1.15l-.84,1.07-6.58,8.55-3.28,4.28-4.73-5.92v6.5Z"/>
    <path class="st0" d="M15.93,20.58v-6.5s4.74,5.92,4.74,5.92l3.28-4.28,6.58-8.55.84-1.07c.63-.64,1.45-1.14,2.38-1.15h3.34s-8.75,11.32-8.75,11.32l-4.22,5.45-3.44,4.47-4.75-5.6Z"/>
    <path class="st0" d="M14.57,14.06l-.02,7.3c0,.84-.07,1.61-.36,2.39-.33.9-.87,1.67-1.62,2.27-.61.46-1.27.78-2.08.88l.08-12.95c.01-2.08.93-4.08,2.22-5.67,1.65-2.03,4.07-3.28,6.69-3.34l6.07-.02c-.57,2.33-2.25,4.03-4.66,4.14h-1.51c-1.51.01-2.89.76-3.78,1.99-.63.86-1.04,1.89-1.04,3Z"/>
    <path class="st0" d="M10.6,9.07H2.54c.34-1.34,1.12-2.52,2.25-3.31.7-.47,1.44-.77,2.29-.83h7.55c-1.71,1.05-3.08,2.39-4.04,4.14Z"/>
  </g>
</svg>