<?xml version="1.0" encoding="UTF-8"?>
<svg id="katman_1" data-name="katman 1" xmlns="http://www.w3.org/2000/svg" viewBox="0 0 1071.34 684">
  <defs>
    <style>
      .cls-1 {
        fill: #d4a84a;
      }

      .cls-2 {
        fill: #1a4b8a;
      }
    </style>
  </defs>
  <path class="cls-2" d="M26.74,146.99c13.6-46.68,41.98-89.38,83.68-113.6,22.25-12.92,46.53-21.49,72.87-21.49l540.69-.1c-8.87,48.57-22.11,95.63-56.16,131.77-29.9,33.13-71.02,52.07-115.54,52.87l-46.82.84c-27.23.49-59.42,24.19-71.87,49.68l112.58,141.7,81.46-105.16,172.78-224.73c22.1-26.18,51.18-43.97,85.47-46.73l67.66-.74,105.63-.29-60.3,78.83-116.73,150.36-55.13,71.16-189.95,245.39-89.93,116.25-91.73-109.11-36.33-42.28c-10.74,81.23-69.65,143.48-150.82,151.38h-30.42v-115.35s1.07-272.26,1.07-272.26c.12-30.53,8.94-58.66,19.21-88.31l-245.94-.07,14.57-50.02ZM278.04,157.24c25.34-46.8,62.08-82.54,107.58-110.35l-201.24-.08c-22.68,1.6-42.42,9.59-61.04,22.04-30.25,21.29-51,52.63-60.07,88.33l214.77.06ZM383.95,290.35c.09-29.81,11.1-57.09,27.83-80.11,23.74-32.66,60.44-52.71,100.71-52.88l40.23-.17c64.27-3.12,108.91-48.39,124.16-110.53l-161.85.43c-70.01,1.64-134.43,35.11-178.42,89.21-34.44,42.35-58.81,95.64-59.16,151.22l-2.18,345.36c21.42-2.61,39.2-11.14,55.41-23.46,19.95-15.89,34.44-36.52,43.14-60.5,7.57-20.86,9.5-41.36,9.56-63.71l.57-194.84ZM420.17,464.27l126.52,149.36,91.66-119.19,112.53-145.31L984.29,47.12l-89.07.14c-24.9.04-46.66,13.53-63.48,30.58l-22.41,28.66-175.34,228.16-87.44,114.28-126.24-158.05-.14,173.37Z"/>
  <path class="cls-1" d="M420.17,464.27l.14-173.37,126.24,158.05,87.44-114.28,175.34-228.16,22.41-28.66c16.82-17.05,38.58-30.55,63.48-30.58l89.07-.14-233.39,302.01-112.53,145.31-91.66,119.19-126.52-149.36Z"/>
  <path class="cls-1" d="M383.95,290.35l-.57,194.84c-.07,22.35-1.99,42.85-9.56,63.71-8.7,23.99-23.19,44.61-43.14,60.5-16.21,12.32-33.99,20.85-55.41,23.46l2.18-345.36c.35-55.58,24.72-108.86,59.16-151.22,43.99-54.1,108.42-87.56,178.42-89.21l161.85-.43c-15.25,62.14-59.89,107.41-124.16,110.53l-40.23.17c-40.27.17-76.97,20.22-100.71,52.88-16.73,23.02-27.74,50.31-27.83,80.11Z"/>
  <path class="cls-1" d="M278.04,157.24l-214.77-.06c9.07-35.7,29.82-67.05,60.07-88.33,18.62-12.45,38.36-20.44,61.04-22.04l201.24.08c-45.5,27.8-82.24,63.54-107.58,110.35Z"/>
</svg>