<?xml version="1.0" encoding="UTF-8"?>
<svg id="katman_1" data-name="katman 1" xmlns="http://www.w3.org/2000/svg" viewBox="5 423 1070 234">
  <defs>
    <style>
      .cls-1 {
        fill: #d4a84a;
      }

      .cls-2 {
        fill: #1a4b8a;
      }
    </style>
  </defs>
  <g>
    <path class="cls-2" d="M1068.66,597.23l-30.86.48-28.24-38.4c-3.77,4.6-9.35,8.18-11.12,13.23l-.64,24.98h-26.79s0-102.16,0-102.16l26.76-.21.52,43.04,37.95-42.88,30.1.18-38.93,44.39,41.24,57.34Z"/>
    <path class="cls-2" d="M888.55,549.13c1.17,17.55,15,28.61,31.83,26.66,8.32-.96,14.67-5.88,20.54-12.11l17.06,16.51c-11.02,14.79-28.17,20.56-46.4,19.46-29.59-1.78-51.4-24.61-50.69-54.34.59-24.66,16.74-45.34,41.24-50.5,9.72-2.04,19.62-1.98,29.28.43,10.54,2.53,19.2,8.03,26.19,16.93l-17.04,16.5c-9.55-10.93-24.31-15.39-37.25-8.75-10.69,5.48-15.6,16.93-14.79,29.21Z"/>
    <polygon class="cls-2" points="776.37 597.28 749.36 597.71 749.22 518.07 718.2 517.88 718.08 495.24 807.16 495.18 807.25 517.88 776.44 518.08 776.37 597.28"/>
    <path class="cls-1" d="M698.8,597.56l-.37-45.69c-.06-7.18-2.71-14.37-8.79-18.46-9.46-6.37-23.37-5.14-31.45,3.12-5.02,5.13-6.95,12.83-6.98,19.74l-.18,41.05c-3.65.61-6.69.73-10.4-.05v-107.03c3.78-.55,6.65-.47,10.39-.08l.15,42.51c7.26-9.25,16.84-12.65,27.7-12.69,16.58-.07,28.73,11.7,29.66,28.55l.41,48.76c-3.24.7-6.12.55-10.15.25Z"/>
    <path class="cls-1" d="M561.18,521.19v76.13c-3.64.77-6.61.55-9.72.04-.08-4.51.7-7.66-.65-12.48-5.78,9.93-15.74,13.59-26.66,13.56-17.23-.05-30.39-11.85-30.46-29.35l-.2-47.94h10.31s.38,47.08.38,47.08c.1,12.19,9.01,20.44,20.96,20.78,14.11.4,25.35-9.28,25.46-23.67l.33-44.18c3.08-.38,6.28-.52,10.24.04Z"/>
    <path class="cls-2" d="M818.52,597.62l-.14-65.85c11-.63,19.82-6.15,27.33-15.38l.36,81.16-27.55.07Z"/>
    <path class="cls-1" d="M405.63,495.95l-38.46,65.64v35.75c-3.76.64-7.08.64-10.78,0l-.15-36.48-38.52-65.01c4.51-.81,7.63-.49,11.62-.22l32.87,55.53,32.36-55.34c3.58-.5,6.74-.54,11.05.14Z"/>
    <path class="cls-1" d="M622.1,585.86c2.21,2.29,2.99,4.59,3.88,7.28-4.81,4.42-10.93,5.46-17.52,5.27-10.93-.32-19.56-8.28-19.62-19.55l-.29-49.14-13-.08c-.95-2.53-.66-5.12-.55-8.6l13.67-.35.15-17.38h10s.07,17.42.07,17.42l22.5.14-.07,8.63-22.39.19.05,45.98c0,4.47,1.53,9.4,5.39,11.69,5.39,3.2,11.94,2.33,17.74-1.49Z"/>
    <path class="cls-1" d="M818.71,522.84l-.23-31.46,12.6.02.45,9.65,16-17.57c3.93-4.31,11.07-3.39,16.4-2.64l-9.57,10.67-17.75,22.18c-4.26,5.32-9.94,8.75-17.9,9.16Z"/>
    <path class="cls-1" d="M438.64,520.44c-21.45,0-38.84,17.38-38.84,38.81s17.39,38.81,38.84,38.81,38.84-17.38,38.84-38.81-17.39-38.81-38.84-38.81ZM463.54,572.36c-3.67,9.21-12.05,15.19-20.36,16.38-10.6,1.52-20.18-2.09-26.41-10.91-8.33-11.81-7.72-29.1,2.29-40.08,10.69-11.73,30.09-11.11,40.12,1.03,7.8,9.44,8.73,22.61,4.36,33.57Z"/>
  </g>
  <g>
    <path class="cls-2" d="M16.21,474.75c4.55-15.62,14.06-29.91,28.02-38.01,7.45-4.32,15.58-7.19,24.4-7.19l181.04-.03c-2.97,16.25-7.4,32-18.8,44.09-10.01,11.08-23.78,17.42-38.69,17.69l-15.68.28c-9.12.16-19.89,8.09-24.06,16.62l37.69,47.42,27.28-35.19,57.85-75.2c7.4-8.76,17.14-14.71,28.62-15.64l22.66-.25,35.37-.1-20.19,26.38-39.08,50.31-18.46,23.81-63.6,82.11-30.11,38.9-30.71-36.51-12.16-14.15c-3.6,27.18-23.32,48.01-50.5,50.66h-10.18v-38.6s.36-91.11.36-91.11c.04-10.21,2.99-19.63,6.43-29.55l-82.35-.02,4.88-16.74ZM100.35,478.17c8.48-15.66,20.79-27.62,36.02-36.92l-67.38-.03c-7.59.54-14.2,3.21-20.44,7.38-10.13,7.12-17.08,17.61-20.11,29.56l71.91.02ZM135.82,522.72c.03-9.97,3.71-19.1,9.32-26.81,7.95-10.93,20.24-17.64,33.72-17.69l13.47-.06c21.52-1.04,36.47-16.19,41.57-36.99l-54.19.14c-23.44.55-45.01,11.75-59.74,29.85-11.53,14.17-19.69,32-19.81,50.6l-.73,115.56c7.17-.87,13.13-3.73,18.55-7.85,6.68-5.32,11.53-12.22,14.45-20.25,2.54-6.98,3.18-13.84,3.2-21.32l.19-65.2ZM147.94,580.91l42.36,49.98,30.69-39.88,37.68-48.62,78.15-101.06-29.82.05c-8.34.01-15.62,4.53-21.25,10.23l-7.5,9.59-58.71,76.35-29.28,38.24-42.27-52.89-.05,58.01Z"/>
    <path class="cls-1" d="M147.94,580.91l.05-58.01,42.27,52.89,29.28-38.24,58.71-76.35,7.5-9.59c5.63-5.71,12.92-10.22,21.25-10.23l29.82-.05-78.15,101.06-37.68,48.62-30.69,39.88-42.36-49.98Z"/>
    <path class="cls-1" d="M135.82,522.72l-.19,65.2c-.02,7.48-.67,14.34-3.2,21.32-2.91,8.03-7.77,14.93-14.45,20.25-5.43,4.12-11.38,6.98-18.55,7.85l.73-115.56c.12-18.6,8.28-36.43,19.81-50.6,14.73-18.1,36.3-29.3,59.74-29.85l54.19-.14c-5.11,20.79-20.05,35.94-41.57,36.99l-13.47.06c-13.48.06-25.77,6.77-33.72,17.69-5.6,7.7-9.29,16.83-9.32,26.81Z"/>
    <path class="cls-1" d="M100.35,478.17l-71.91-.02c3.04-11.95,9.98-22.44,20.11-29.56,6.24-4.17,12.84-6.84,20.44-7.38l67.38.03c-15.24,9.3-27.54,21.26-36.02,36.92Z"/>
  </g>
</svg>